Coordinates
version=1
nRows=41
nColumns=38
inDegrees=no

Units are S.I. units (second, meters, Newtons, ...)
If the header above contains a line with 'inDegrees', this indicates whether rotational values are in degrees (yes) or radians (no).

endheader
time	pelvis_tilt	pelvis_list	pelvis_rotation	pelvis_tx	pelvis_ty	pelvis_tz	hip_flexion_r	hip_adduction_r	hip_rotation_r	knee_angle_r	ankle_angle_r	subtalar_angle_r	mtp_angle_r	hip_flexion_l	hip_adduction_l	hip_rotation_l	knee_angle_l	ankle_angle_l	subtalar_angle_l	mtp_angle_l	lumbar_extension	lumbar_bending	lumbar_rotation	arm_flex_r	arm_add_r	arm_rot_r	elbow_flex_r	pro_sup_r	wrist_flex_r	wrist_dev_r	arm_flex_l	arm_add_l	arm_rot_l	elbow_flex_l	pro_sup_l	wrist_flex_l	wrist_dev_l
0.86	2.35065	1.45139	2.26316	0.86323	0.0250864	1.01202	-0.031951	-0.101283	-0.0805232	0.734282	-0.0575075	0	0	0.476574	0.0780637	-0.293038	0.453792	-0.1839	0	0	0.0726872	-0.0542674	0.0917314	-0.253332	-0.241129	-0.211625	0.367533	0.241463	0	0	-0.401204	-0.478806	1.21177	0.569405	0.385803	0	0
0.87	2.32915	1.43972	2.28571	0.86408	0.0120822	1.01154	-0.0178158	-0.116894	-0.0765816	0.767839	-0.0830119	0	0	0.481149	0.08626	-0.291493	0.467783	-0.196306	0	0	0.0898638	-0.0678357	0.0879046	-0.256259	-0.238165	-0.203646	0.358446	0.240456	0	0	-0.409493	-0.483294	1.20766	0.564336	0.376917	0	0
0.88	2.31366	1.42747	2.30404	0.865274	-0.00086629	1.01131	-0.00055445	-0.133001	-0.0732815	0.803715	-0.116164	0	0	0.485373	0.0960787	-0.287486	0.483829	-0.197728	0	0	0.107276	-0.0812596	0.0834414	-0.261174	-0.235181	-0.196514	0.35167	0.237956	0	0	-0.415403	-0.488339	1.20658	0.559376	0.367419	0	0
0.89	2.30463	1.41659	2.31744	0.8667	-0.013701	1.01133	0.0177966	-0.147381	-0.0694654	0.839766	-0.156094	0	0	0.489045	0.105859	-0.279915	0.501893	-0.196087	0	0	0.123034	-0.0930149	0.0784822	-0.267953	-0.232674	-0.189086	0.347756	0.23315	0	0	-0.417744	-0.494423	1.21109	0.555295	0.357292	0	0
0.9	2.28129	1.4112	2.34536	0.86808	-0.0263136	1.01197	0.0304942	-0.158434	-0.063585	0.873383	-0.195955	0	0	0.485971	0.114007	-0.272134	0.518333	-0.194512	0	0	0.129966	-0.102486	0.0742965	-0.275121	-0.230304	-0.183865	0.347113	0.228066	0	0	-0.414711	-0.501941	1.2197	0.552908	0.35003	0	0
0.91	2.24318	1.41055	2.3872	0.86927	-0.0386569	1.01316	0.0380515	-0.166033	-0.0546626	0.904783	-0.236914	0	0	0.474991	0.120119	-0.266661	0.529672	-0.19151	0	0	0.129125	-0.109882	0.071289	-0.281755	-0.228211	-0.179611	0.348341	0.221888	0	0	-0.406992	-0.511584	1.23132	0.553539	0.343268	0	0
0.92	2.18231	1.41421	2.4509	0.870265	-0.0506245	1.01487	0.0408915	-0.171062	-0.0443645	0.935916	-0.276746	0	0	0.454967	0.125093	-0.26478	0.535322	-0.187246	0	0	0.119711	-0.115727	0.0692331	-0.287073	-0.226611	-0.17557	0.351204	0.213677	0	0	-0.394244	-0.523483	1.24546	0.557576	0.334893	0	0
0.93	2.10351	1.41934	2.53124	0.871224	-0.0620664	1.01681	0.0426287	-0.174668	-0.0325827	0.968051	-0.311565	0	0	0.430002	0.130173	-0.265763	0.537393	-0.18251	0	0	0.10488	-0.12044	0.0682039	-0.291054	-0.225905	-0.172321	0.355659	0.206001	0	0	-0.377587	-0.535465	1.26027	0.562108	0.328733	0	0
0.94	2.01496	1.42363	2.61958	0.872151	-0.0729932	1.01874	0.0470517	-0.178082	-0.0196767	1.00317	-0.344326	0	0	0.403822	0.135526	-0.270596	0.537339	-0.178025	0	0	0.0878893	-0.12465	0.0684545	-0.29416	-0.22603	-0.169931	0.361812	0.200765	0	0	-0.358585	-0.546453	1.27402	0.565531	0.326912	0	0
0.95	1.91064	1.42662	2.72136	0.872935	-0.0835308	1.02069	0.0535132	-0.182459	-0.00645339	1.0411	-0.378342	0	0	0.375716	0.141208	-0.28045	0.535385	-0.173028	0	0	0.0680496	-0.129263	0.070988	-0.297316	-0.227082	-0.166576	0.370744	0.197774	0	0	-0.33843	-0.557798	1.28403	0.569905	0.328549	0	0
0.96	1.79709	1.42769	2.83075	0.873554	-0.0937568	1.02262	0.0621677	-0.187648	0.0057191	1.0809	-0.407121	0	0	0.346402	0.147612	-0.292356	0.532341	-0.167248	0	0	0.0468598	-0.134312	0.0743034	-0.299826	-0.228568	-0.16359	0.381316	0.195498	0	0	-0.318698	-0.569643	1.28801	0.575592	0.334246	0	0
0.97	1.68073	1.42687	2.9421	0.873976	-0.103766	1.02456	0.0713968	-0.192241	0.0168283	1.1197	-0.420006	0	0	0.316151	0.154151	-0.30556	0.528587	-0.161067	0	0	0.0253303	-0.139595	0.0768462	-0.301043	-0.230154	-0.16277	0.392612	0.192003	0	0	-0.300566	-0.583374	1.28168	0.586265	0.334428	0	0
0.98	1.57464	1.42461	3.04289	0.874301	-0.113608	1.02641	0.0827016	-0.195728	0.0280243	1.15733	-0.413467	0	0	0.28662	0.160006	-0.31925	0.524199	-0.155009	0	0	0.00519338	-0.144167	0.0787253	-0.302111	-0.232149	-0.162432	0.40458	0.188991	0	0	-0.282838	-0.595396	1.27505	0.594303	0.340238	0	0
0.99	1.48577	1.42184	3.1272	0.874529	-0.1233	1.02819	0.0966259	-0.197457	0.0381714	1.19402	-0.388377	0	0	0.258788	0.164678	-0.331663	0.518485	-0.15	0	0	-0.0125232	-0.147655	0.0793563	-0.303014	-0.234192	-0.16097	0.415752	0.187666	0	0	-0.265687	-0.605913	1.26889	0.599093	0.356196	0	0
1	1.42771	1.41975	-3.10065	0.874817	-0.132895	1.02972	0.115709	-0.197299	0.0460953	1.23019	-0.353405	0	0	0.235521	0.167746	-0.340876	0.512116	-0.1464	0	0	-0.0248996	-0.149514	0.0778597	-0.30387	-0.235956	-0.159512	0.425175	0.186535	0	0	-0.249942	-0.616845	1.25863	0.605184	0.372208	0	0
1.01	1.40382	1.41947	-3.07724	0.875237	-0.142458	1.03095	0.140477	-0.195089	0.0514514	1.26333	-0.322336	0	0	0.218027	0.168891	-0.345514	0.505722	-0.143651	0	0	-0.0303745	-0.149279	0.0740739	-0.304373	-0.237507	-0.157383	0.431101	0.186375	0	0	-0.235169	-0.627839	1.24917	0.611265	0.385366	0	0
1.02	1.39512	1.42144	-3.0668	0.875798	-0.151973	1.03209	0.166551	-0.190844	0.053301	1.28956	-0.295487	0	0	0.203172	0.167949	-0.345521	0.499192	-0.141246	0	0	-0.0326894	-0.146672	0.0685767	-0.30535	-0.239697	-0.152236	0.435115	0.188811	0	0	-0.220305	-0.638499	1.24027	0.616596	0.400356	0	0
1.03	1.39223	1.42533	-3.05979	0.876465	-0.161295	1.03328	0.192775	-0.185213	0.0514478	1.31016	-0.275021	0	0	0.18987	0.165326	-0.341012	0.493676	-0.138985	0	0	-0.0339238	-0.142076	0.0606594	-0.305701	-0.241627	-0.147224	0.437615	0.190386	0	0	-0.204391	-0.649026	1.23277	0.621913	0.415598	0	0
1.04	1.38933	1.43069	-3.0526	0.877094	-0.170707	1.0346	0.218256	-0.178506	0.0476308	1.32533	-0.261434	0	0	0.176463	0.160764	-0.337851	0.488293	-0.136893	0	0	-0.0339521	-0.135789	0.0526695	-0.30572	-0.243279	-0.143128	0.437944	0.191289	0	0	-0.18774	-0.659106	1.22841	0.626648	0.428296	0	0
1.05	1.37721	1.4372	-3.03641	0.877693	-0.180238	1.03608	0.241386	-0.171005	0.0417713	1.33532	-0.248572	0	0	0.161285	0.15475	-0.337484	0.481689	-0.134867	0	0	-0.0343004	-0.127915	0.0448959	-0.305326	-0.245012	-0.138932	0.436466	0.19225	0	0	-0.171025	-0.668197	1.22353	0.630432	0.441071	0	0
1.06	1.3447	1.4439	-3.00026	0.878288	-0.189767	1.03781	0.260491	-0.163386	0.0344307	1.33968	-0.23398	0	0	0.142809	0.148149	-0.34032	0.474179	-0.133045	0	0	-0.0371951	-0.119311	0.0375795	-0.304951	-0.246904	-0.134869	0.435421	0.193297	0	0	-0.153462	-0.676711	1.2183	0.63374	0.454195	0	0
1.07	1.28714	1.44966	-2.93929	0.878961	-0.199179	1.0397	0.275766	-0.157027	0.0255462	1.33908	-0.216552	0	0	0.12102	0.142111	-0.345865	0.465424	-0.131843	0	0	-0.0439431	-0.110746	0.0309591	-0.305035	-0.249173	-0.130806	0.436393	0.19394	0	0	-0.134792	-0.685264	1.21089	0.637664	0.471774	0	0
1.08	1.21686	1.4537	-2.86585	0.879669	-0.20842	1.0416	0.289863	-0.152544	0.0160027	1.33486	-0.20285	0	0	0.0974772	0.137493	-0.351856	0.45503	-0.131592	0	0	-0.0523938	-0.10308	0.0246576	-0.30515	-0.251518	-0.127189	0.438655	0.194572	0	0	-0.115193	-0.694165	1.2033	0.642626	0.488695	0	0
1.09	1.15072	1.45637	-2.79658	0.880448	-0.217476	1.0433	0.305306	-0.149982	0.00619512	1.3283	-0.195243	0	0	0.0748342	0.13435	-0.356679	0.444067	-0.131853	0	0	-0.0601347	-0.0963863	0.0183878	-0.304949	-0.253637	-0.124097	0.441171	0.196049	0	0	-0.0944884	-0.70365	1.19804	0.648885	0.50192	0	0
1.1	1.07954	1.45737	-2.72257	0.881194	-0.226346	1.04489	0.318956	-0.148205	-0.0029061	1.31723	-0.188711	0	0	0.0515483	0.13229	-0.360282	0.43232	-0.13247	0	0	-0.0693176	-0.0908106	0.0127467	-0.304948	-0.25544	-0.121687	0.445496	0.197809	0	0	-0.0740804	-0.713736	1.1889	0.656327	0.520678	0	0
1.11	1.0194	1.45813	-2.65963	0.881883	-0.235146	1.04621	0.333315	-0.146533	-0.0110018	1.3028	-0.182057	0	0	0.0302249	0.130478	-0.362309	0.420674	-0.133104	0	0	-0.0768728	-0.0856715	0.00728141	-0.305181	-0.256882	-0.120062	0.450366	0.200299	0	0	-0.0543521	-0.723581	1.178	0.663494	0.540326	0	0
1.12	0.96526	1.45884	-2.60229	0.88246	-0.243968	1.04738	0.347063	-0.144475	-0.0187761	1.28505	-0.173849	0	0	0.010111	0.12869	-0.36265	0.408921	-0.133884	0	0	-0.0831504	-0.0808153	0.00134729	-0.304933	-0.25771	-0.118987	0.454416	0.20344	0	0	-0.035572	-0.733474	1.16583	0.670569	0.560322	0	0
1.13	0.913552	1.45931	-2.54775	0.882901	-0.252699	1.0484	0.360058	-0.141697	-0.0248328	1.26415	-0.166146	0	0	-0.00898099	0.126679	-0.362855	0.398695	-0.134455	0	0	-0.0891424	-0.0762398	-0.00417602	-0.304151	-0.258113	-0.118539	0.458246	0.207231	0	0	-0.0169329	-0.743568	1.15328	0.678056	0.579787	0	0
1.14	0.861635	1.45933	-2.49357	0.883183	-0.261325	1.04934	0.372109	-0.138649	-0.0298778	1.24041	-0.160354	0	0	-0.0276832	0.124508	-0.363259	0.389587	-0.134737	0	0	-0.0954857	-0.0719765	-0.00902442	-0.302794	-0.258103	-0.118628	0.461898	0.211541	0	0	0.00203678	-0.753627	1.14114	0.685471	0.598971	0	0
1.15	0.823407	1.46004	-2.45354	0.883338	-0.269858	1.05004	0.385133	-0.13521	-0.0330326	1.21387	-0.156803	0	0	-0.0441947	0.122284	-0.362637	0.381343	-0.134648	0	0	-0.0997393	-0.0680966	-0.0133093	-0.301017	-0.25763	-0.119169	0.464894	0.215084	0	0	0.0219562	-0.763759	1.13321	0.692588	0.614771	0	0
1.16	0.799192	1.46145	-2.42791	0.883465	-0.278339	1.05048	0.398769	-0.131886	-0.0338993	1.1843	-0.153374	0	0	-0.0588273	0.12052	-0.361038	0.373158	-0.133963	0	0	-0.102161	-0.0646959	-0.0169015	-0.299288	-0.256952	-0.120229	0.467801	0.219022	0	0	0.0417702	-0.773895	1.12604	0.700139	0.631689	0	0
1.17	0.789032	1.46383	-2.41636	0.883589	-0.286814	1.05062	0.412922	-0.128676	-0.0336145	1.15259	-0.148292	0	0	-0.0707936	0.119138	-0.359869	0.365873	-0.132629	0	0	-0.102466	-0.0615164	-0.0201425	-0.297952	-0.256177	-0.122145	0.470918	0.223143	0	0	0.0608119	-0.783584	1.11825	0.707828	0.648082	0	0
1.18	0.78546	1.46665	-2.41151	0.883628	-0.295274	1.0506	0.426062	-0.125353	-0.0326872	1.11824	-0.141826	0	0	-0.0811247	0.117773	-0.358803	0.359801	-0.130588	0	0	-0.101838	-0.0585881	-0.0231871	-0.296507	-0.255141	-0.124678	0.473966	0.22731	0	0	0.0791622	-0.79282	1.10964	0.715355	0.662948	0	0
1.19	0.789468	1.46952	-2.4146	0.883527	-0.303766	1.05047	0.438099	-0.122537	-0.0314246	1.0807	-0.135291	0	0	-0.0908657	0.11693	-0.35879	0.353279	-0.128903	0	0	-0.100208	-0.0564344	-0.0261641	-0.294385	-0.253697	-0.127346	0.47592	0.231593	0	0	0.0962924	-0.801908	1.10017	0.722767	0.676774	0	0
1.2	0.804205	1.47257	-2.42834	0.883358	-0.312292	1.05017	0.449374	-0.120641	-0.0307152	1.03987	-0.130495	0	0	-0.0996435	0.116522	-0.358348	0.34738	-0.127353	0	0	-0.0974695	-0.055003	-0.0290872	-0.292089	-0.252101	-0.129969	0.47729	0.236188	0	0	0.112823	-0.810926	1.09086	0.730255	0.691333	0	0
1.21	0.831821	1.4759	-2.45465	0.883188	-0.32087	1.04964	0.460297	-0.119652	-0.030754	0.99644	-0.127375	0	0	-0.106835	0.116423	-0.357433	0.342625	-0.125861	0	0	-0.0934122	-0.0540739	-0.0321189	-0.29013	-0.250646	-0.132198	0.478824	0.241534	0	0	0.128588	-0.819248	1.08185	0.737084	0.706331	0	0
1.22	0.873889	1.47972	-2.49499	0.883058	-0.329523	1.04884	0.471116	-0.119337	-0.0321032	0.950777	-0.124797	0	0	-0.112311	0.116446	-0.355993	0.338427	-0.124033	0	0	-0.0877447	-0.0532762	-0.0354114	-0.288843	-0.24932	-0.134764	0.480942	0.2467	0	0	0.14365	-0.826797	1.07341	0.743503	0.720233	0	0
1.23	0.927824	1.48372	-2.54683	0.88289	-0.338285	1.04783	0.481349	-0.119398	-0.0353362	0.903073	-0.12229	0	0	-0.116864	0.116465	-0.353739	0.33408	-0.1218	0	0	-0.0809248	-0.05261	-0.0388086	-0.287908	-0.24794	-0.137954	0.482945	0.251241	0	0	0.158119	-0.834121	1.06545	0.749957	0.732458	0	0
1.24	0.97928	1.48727	-2.59619	0.882604	-0.347174	1.04679	0.489612	-0.11936	-0.0403684	0.853495	-0.11954	0	0	-0.12189	0.116152	-0.350969	0.33027	-0.118803	0	0	-0.0745937	-0.0518086	-0.0419381	-0.287288	-0.246682	-0.141261	0.485013	0.25583	0	0	0.172757	-0.84121	1.05912	0.756236	0.744481	0	0
1.25	1.03223	1.49093	-2.6466	0.882302	-0.356167	1.04564	0.496787	-0.119197	-0.0473065	0.803221	-0.116272	0	0	-0.126559	0.115107	-0.347922	0.327829	-0.115292	0	0	-0.0683482	-0.0504508	-0.044998	-0.287537	-0.245703	-0.145131	0.488014	0.260313	0	0	0.1884	-0.847776	1.05655	0.761913	0.757999	0	0
1.26	1.09227	1.49471	-2.70377	0.882003	-0.365293	1.04435	0.503353	-0.11902	-0.0562607	0.752661	-0.111978	0	0	-0.130858	0.113634	-0.344177	0.326082	-0.111283	0	0	-0.0616097	-0.0486298	-0.0478581	-0.288628	-0.244951	-0.149889	0.491584	0.264503	0	0	0.204123	-0.853293	1.05561	0.766772	0.770832	0	0
